<?xml version="1.0" encoding="UTF-8" standalone="no"?>
<!-- Created with Inkscape (http://www.inkscape.org/) -->

<svg
   xmlns:dc="http://purl.org/dc/elements/1.1/"
   xmlns:cc="http://creativecommons.org/ns#"
   xmlns:rdf="http://www.w3.org/1999/02/22-rdf-syntax-ns#"
   xmlns:svg="http://www.w3.org/2000/svg"
   xmlns="http://www.w3.org/2000/svg"
   xmlns:sodipodi="http://sodipodi.sourceforge.net/DTD/sodipodi-0.dtd"
   xmlns:inkscape="http://www.inkscape.org/namespaces/inkscape"
   width="90"
   height="90"
   viewBox="0 0 90.000001 90.000001"
   id="svg2"
   version="1.1"
   inkscape:version="0.91 r13725"
   sodipodi:docname="tortuga.svg"
   inkscape:export-filename="C:\Users\MThumfart\Desktop\tortuga.png"
   inkscape:export-xdpi="90"
   inkscape:export-ydpi="90">
  <defs
     id="defs4" />
  <sodipodi:namedview
     id="base"
     pagecolor="#ffffff"
     bordercolor="#666666"
     borderopacity="1.0"
     inkscape:pageopacity="0.0"
     inkscape:pageshadow="2"
     inkscape:zoom="7.9195959"
     inkscape:cx="33.498873"
     inkscape:cy="52.37035"
     inkscape:document-units="px"
     inkscape:current-layer="layer1"
     showgrid="false"
     units="px"
     inkscape:window-width="1920"
     inkscape:window-height="1018"
     inkscape:window-x="-8"
     inkscape:window-y="-8"
     inkscape:window-maximized="1" />
  <metadata
     id="metadata7">
    <rdf:RDF>
      <cc:Work
         rdf:about="">
        <dc:format>image/svg+xml</dc:format>
        <dc:type
           rdf:resource="http://purl.org/dc/dcmitype/StillImage" />
        <dc:title></dc:title>
      </cc:Work>
    </rdf:RDF>
  </metadata>
  <g
     inkscape:label="Layer 1"
     inkscape:groupmode="layer"
     id="layer1"
     transform="translate(0,-962.36216)">
    <path
       style="fill:#000000"
       d="m 48.793445,1031.3917 c 0.564358,-1.6715 1.325799,-5.6223 1.692094,-8.7796 0.684597,-5.9008 2.849864,-7.3396 5.817167,-3.8653 1.011486,1.1844 1.258388,3.96 0.670192,7.5344 -0.707745,4.3008 -1.740326,5.9582 -4.301788,6.9044 -4.746365,1.7536 -5.030944,1.6219 -3.877665,-1.7939 z"
       id="path3411"
       inkscape:connector-curvature="0" />
    <path
       style="fill:#000000"
       d="m 41.453462,1031.8719 c -2.598529,-0.9684 -3.001797,-1.8459 -2.26286,-4.9239 1.561987,-6.5065 3.968198,-10.4497 6.687135,-10.9585 2.408688,-0.4507 2.561415,0.1634 1.806925,7.2671 -0.951462,8.9582 -1.877209,10.2381 -6.2312,8.6153 z"
       id="path3409"
       inkscape:connector-curvature="0" />
    <path
       style="fill:#000000"
       d="m 59.338975,1025.6512 c 0,-5.0939 0.432306,-6.0783 2.669576,-6.0783 3.933581,0 5.53417,7.9252 2.094239,10.3693 -4.010189,2.8494 -4.763815,2.1705 -4.763815,-4.291 z"
       id="path3407"
       inkscape:connector-curvature="0" />
    <path
       style="fill:#000000"
       d="m 31.380304,1026.5631 c -2.309848,-1.6411 -2.344033,-2.1626 -0.433123,-6.6068 4.030796,-9.3743 9.253213,-8.0751 7.087366,1.7631 -1.397512,6.348 -2.948313,7.477 -6.654243,4.8437 z"
       id="path3405"
       inkscape:connector-curvature="0" />
    <path
       style="fill:#000000"
       d="m 68.584324,1025.2478 c -1.251605,-4.5419 -1.126283,-5.1698 1.032057,-5.1698 2.853166,0 4.027848,4.2384 1.780058,6.4227 -1.66777,1.6205 -2.069626,1.4416 -2.812115,-1.2529 z"
       id="path3403"
       inkscape:connector-curvature="0" />
    <path
       style="fill:#000000"
       d="m 74.405967,1021.2763 c -0.91986,-3.4181 -0.350173,-4.43 1.775284,-3.1536 1.783903,1.0715 1.994032,6.1338 0.254597,6.1338 -0.675339,0 -1.588786,-1.341 -2.029881,-2.9802 z"
       id="path3401"
       inkscape:connector-curvature="0" />
    <path
       style="fill:#000000"
       d="m 22.953167,1019.6764 -3.212356,-3.3247 3.747311,-2.8643 c 6.512025,-4.9775 8.480341,-3.2536 5.00795,4.386 l -2.330553,5.1276 -3.212352,-3.3246 z"
       id="path3399"
       inkscape:connector-curvature="0" />
    <path
       style="fill:#000000"
       d="m 79.130305,1018.0931 c -1.411537,-1.6527 -1.500301,-2.6253 -0.342265,-3.7507 1.158037,-1.1253 1.789603,-0.9469 2.435225,0.6881 1.421348,3.5991 0.06297,5.5869 -2.09296,3.0626 z"
       id="path3397"
       inkscape:connector-curvature="0" />
    <path
       style="fill:#000000"
       d="m 56.336671,1015.1043 c -2.559833,-1.4826 -2.984502,-5.2786 -1.540341,-13.7686 0.71031,-4.17583 1.434138,-5.06516 4.122686,-5.06516 4.838968,0 7.741298,5.24046 7.228794,13.05236 -0.383869,5.8515 -0.79104,6.567 -3.903597,6.8615 -1.911263,0.1808 -4.569658,-0.3052 -5.907542,-1.0801 z"
       id="path3395"
       inkscape:connector-curvature="0" />
    <path
       style="fill:#000000"
       d="m 68.721144,1009.6492 0.03092,-7.3005 2.718203,3.3767 c 3.446314,4.2813 3.446314,5.7489 0,8.7795 -2.747683,2.4165 -2.779661,2.3599 -2.749112,-4.8557 z"
       id="path3393"
       inkscape:connector-curvature="0" />
    <path
       style="fill:#000000"
       d="m 15.562666,1012.2871 c -2.393736,-2.5702 -2.343889,-2.7202 1.55654,-4.68 2.581869,-1.2975 4.748994,-1.5901 6.032291,-0.8145 1.649475,0.9968 1.374866,1.8224 -1.556541,4.68 -3.524598,3.4358 -3.583512,3.4438 -6.03229,0.8145 z"
       id="path3389"
       inkscape:connector-curvature="0" />
    <path
       style="fill:#000000"
       d="m 40.919244,1012.46 c -1.88396,-0.5003 -2.432516,-2.0994 -2.432516,-7.091 0,-7.07974 2.830174,-10.916 8.053101,-10.916 4.36916,0 6.107653,4.25825 4.815683,11.7955 -0.956428,5.5798 -1.564034,6.4668 -4.553723,6.6482 -1.897514,0.1147 -4.54466,-0.08 -5.882545,-0.4367 z"
       id="path3387"
       inkscape:connector-curvature="0" />
    <path
       style="fill:#000000"
       d="m 30.003605,1008.6042 c -1.574095,-1.3297 -3.909363,-4.0505 -5.189488,-6.0463 -2.299115,-3.5843 -2.274557,-3.65505 2.01394,-5.81009 2.486511,-1.2494 5.569763,-1.80265 7.216323,-1.29479 2.495479,0.76964 2.782212,1.68555 2.172663,6.94048 -0.895643,7.7214 -2.512171,9.3373 -6.213438,6.2107 z"
       id="path3385"
       inkscape:connector-curvature="0" />
    <path
       style="fill:#000000"
       d="m 75.196714,1007.1632 c -0.853343,-1.5493 -1.136962,-3.2199 -0.630262,-3.7122 0.942986,-0.9164 4.864005,3.4663 4.864005,5.4368 0,2.1462 -2.709744,1.0425 -4.233743,-1.7246 z"
       id="path3383"
       inkscape:connector-curvature="0" />
    <path
       style="fill:#000000"
       d="m 10.306676,1005.5147 c 0,-2.5962 5.148513,-5.2174 8.0921,-4.1199 1.995133,0.744 1.83615,1.2206 -1.151121,3.4509 -4.157783,3.104 -6.940979,3.3723 -6.940979,0.669 z"
       id="path3381"
       inkscape:connector-curvature="0" />
    <path
       style="fill:#000000"
       d="m 65.281683,997.15138 c -2.503482,-2.09251 -3.533349,-4.11247 -3.205033,-6.28623 l 0.483761,-3.20294 4.517532,3.70485 c 4.214487,3.45638 6.170288,8.86764 3.205034,8.86764 -0.721873,0 -2.972456,-1.38755 -5.001294,-3.08332 z"
       id="path3379"
       inkscape:connector-curvature="0" />
    <path
       style="fill:#000000"
       d="m 7.9054638,998.75351 c 0,-1.8787 3.6505192,-3.13053 5.6418772,-1.93448 1.171166,0.70331 1.095231,1.27763 -0.280939,2.12508 -2.586858,1.59269 -5.3609382,1.49409 -5.3609382,-0.1906 z"
       id="path3377"
       inkscape:connector-curvature="0" />
    <path
       style="fill:#000000"
       d="m 16.768305,995.46023 c -2.866243,-3.07763 -2.086659,-4.75912 3.510417,-7.57164 3.925214,-1.97241 4.162549,-1.92681 5.322821,1.02265 0.925935,2.35376 0.531883,3.80904 -1.658824,6.12618 -3.50155,3.70368 -4.08675,3.73813 -7.174414,0.42281 z"
       id="path3375"
       inkscape:connector-curvature="0" />
    <path
       style="fill:#000000"
       d="m 32.421039,991.30212 c -1.876513,-1.82345 -3.411841,-4.23334 -3.411841,-5.3553 0,-2.73256 4.839171,-5.10161 9.359478,-4.582 5.075112,0.58341 6.892878,6.91482 3.055763,10.64342 -3.500127,3.40122 -4.888672,3.29221 -9.0034,-0.70612 z"
       id="path3373"
       inkscape:connector-curvature="0" />
    <path
       style="fill:#000000"
       d="m 48.073934,991.34345 c -1.476997,-1.58591 -2.284561,-4.18481 -2.013986,-6.4814 0.376745,-3.19776 1.028273,-3.77093 3.926716,-3.45447 4.441917,0.48496 8.145523,4.08385 8.644613,8.40018 0.332631,2.87674 -0.237575,3.43648 -3.850607,3.77997 -2.837553,0.26975 -5.057031,-0.47292 -6.706736,-2.24428 z"
       id="path3360"
       inkscape:connector-curvature="0" />
  </g>
</svg>
